<mxfile host="app.diagrams.net" modified="2021-12-13T08:03:18.332Z" agent="5.0 (Macintosh; Intel Mac OS X 10_15_7) AppleWebKit/537.36 (KHTML, like Gecko) Chrome/96.0.4664.93 Safari/537.36" etag="iDBKx4NQKTd5cBa1zCns" version="15.9.4" type="github">
  <diagram id="C5RBs43oDa-KdzZeNtuy" name="Page-1">
    <mxGraphModel dx="2321" dy="635" grid="1" gridSize="10" guides="1" tooltips="1" connect="1" arrows="1" fold="1" page="1" pageScale="1" pageWidth="827" pageHeight="1169" math="0" shadow="0">
      <root>
        <mxCell id="WIyWlLk6GJQsqaUBKTNV-0" />
        <mxCell id="WIyWlLk6GJQsqaUBKTNV-1" parent="WIyWlLk6GJQsqaUBKTNV-0" />
        <mxCell id="HiAFC0zFWDlPwTdex9Qj-0" value="&lt;font style=&quot;font-size: 18px&quot;&gt;시작&lt;/font&gt;" style="ellipse;whiteSpace=wrap;html=1;" vertex="1" parent="WIyWlLk6GJQsqaUBKTNV-1">
          <mxGeometry x="-640" y="480" width="120" height="70" as="geometry" />
        </mxCell>
        <mxCell id="HiAFC0zFWDlPwTdex9Qj-4" value="&lt;font style=&quot;font-size: 18px&quot;&gt;45개의 숫자 생성&lt;/font&gt;" style="shape=hexagon;perimeter=hexagonPerimeter2;whiteSpace=wrap;html=1;fixedSize=1;" vertex="1" parent="WIyWlLk6GJQsqaUBKTNV-1">
          <mxGeometry x="-480" y="470" width="260" height="80" as="geometry" />
        </mxCell>
        <mxCell id="HiAFC0zFWDlPwTdex9Qj-17" value="array에 6개 찰때까지 반복" style="swimlane;fontSize=18;" vertex="1" parent="WIyWlLk6GJQsqaUBKTNV-1">
          <mxGeometry x="-186" y="270" width="600" height="550" as="geometry" />
        </mxCell>
        <mxCell id="HiAFC0zFWDlPwTdex9Qj-18" value="" style="rounded=0;whiteSpace=wrap;html=1;fontSize=18;" vertex="1" parent="HiAFC0zFWDlPwTdex9Qj-17">
          <mxGeometry x="18" y="40" width="564" height="500" as="geometry" />
        </mxCell>
        <mxCell id="HiAFC0zFWDlPwTdex9Qj-6" value="&lt;font style=&quot;font-size: 18px&quot;&gt;임의의 1개 숫자 축출&lt;/font&gt;" style="rounded=0;whiteSpace=wrap;html=1;" vertex="1" parent="HiAFC0zFWDlPwTdex9Qj-17">
          <mxGeometry x="86" y="55" width="200" height="90" as="geometry" />
        </mxCell>
        <mxCell id="HiAFC0zFWDlPwTdex9Qj-7" value="&lt;font style=&quot;font-size: 18px&quot;&gt;전숫자들과 중복이되는가?&lt;/font&gt;" style="rhombus;whiteSpace=wrap;html=1;" vertex="1" parent="HiAFC0zFWDlPwTdex9Qj-17">
          <mxGeometry x="26" y="205" width="330" height="110" as="geometry" />
        </mxCell>
        <mxCell id="HiAFC0zFWDlPwTdex9Qj-11" value="" style="endArrow=classic;html=1;rounded=0;" edge="1" parent="HiAFC0zFWDlPwTdex9Qj-17">
          <mxGeometry width="50" height="50" relative="1" as="geometry">
            <mxPoint x="100" y="20" as="sourcePoint" />
            <mxPoint x="100" y="20" as="targetPoint" />
            <Array as="points" />
          </mxGeometry>
        </mxCell>
        <mxCell id="HiAFC0zFWDlPwTdex9Qj-12" value="" style="endArrow=classic;html=1;rounded=0;" edge="1" parent="HiAFC0zFWDlPwTdex9Qj-17">
          <mxGeometry width="50" height="50" relative="1" as="geometry">
            <mxPoint x="190.5" y="205" as="sourcePoint" />
            <mxPoint x="190.5" y="205" as="targetPoint" />
            <Array as="points">
              <mxPoint x="190.5" y="145" />
            </Array>
          </mxGeometry>
        </mxCell>
        <mxCell id="HiAFC0zFWDlPwTdex9Qj-14" value="" style="endArrow=classic;html=1;rounded=0;" edge="1" parent="HiAFC0zFWDlPwTdex9Qj-17">
          <mxGeometry width="50" height="50" relative="1" as="geometry">
            <mxPoint x="190.5" y="395" as="sourcePoint" />
            <mxPoint x="190.5" y="395" as="targetPoint" />
            <Array as="points">
              <mxPoint x="190.5" y="315" />
            </Array>
          </mxGeometry>
        </mxCell>
        <mxCell id="HiAFC0zFWDlPwTdex9Qj-15" value="&lt;font style=&quot;font-size: 18px&quot;&gt;F&lt;/font&gt;" style="text;html=1;align=center;verticalAlign=middle;resizable=0;points=[];autosize=1;strokeColor=none;fillColor=none;" vertex="1" parent="HiAFC0zFWDlPwTdex9Qj-17">
          <mxGeometry x="191" y="340" width="30" height="20" as="geometry" />
        </mxCell>
        <mxCell id="HiAFC0zFWDlPwTdex9Qj-16" value="&lt;font style=&quot;font-size: 18px&quot;&gt;array에 저장&lt;/font&gt;" style="rounded=0;whiteSpace=wrap;html=1;" vertex="1" parent="HiAFC0zFWDlPwTdex9Qj-17">
          <mxGeometry x="76" y="395" width="240" height="110" as="geometry" />
        </mxCell>
        <mxCell id="HiAFC0zFWDlPwTdex9Qj-1" value="" style="endArrow=classic;html=1;rounded=0;" edge="1" parent="HiAFC0zFWDlPwTdex9Qj-17">
          <mxGeometry width="50" height="50" relative="1" as="geometry">
            <mxPoint x="146" y="40" as="sourcePoint" />
            <mxPoint x="146" y="40" as="targetPoint" />
            <Array as="points">
              <mxPoint x="146" y="20" />
            </Array>
          </mxGeometry>
        </mxCell>
        <mxCell id="HiAFC0zFWDlPwTdex9Qj-34" value="" style="endArrow=classic;html=1;rounded=0;fontSize=18;exitX=-0.027;exitY=1;exitDx=0;exitDy=0;exitPerimeter=0;" edge="1" parent="HiAFC0zFWDlPwTdex9Qj-17" source="HiAFC0zFWDlPwTdex9Qj-36" target="HiAFC0zFWDlPwTdex9Qj-35">
          <mxGeometry width="50" height="50" relative="1" as="geometry">
            <mxPoint x="356" y="259.5" as="sourcePoint" />
            <mxPoint x="396" y="260" as="targetPoint" />
          </mxGeometry>
        </mxCell>
        <mxCell id="HiAFC0zFWDlPwTdex9Qj-35" value="저장하지않음" style="rounded=0;whiteSpace=wrap;html=1;fontSize=18;" vertex="1" parent="HiAFC0zFWDlPwTdex9Qj-17">
          <mxGeometry x="426" y="230" width="120" height="60" as="geometry" />
        </mxCell>
        <mxCell id="HiAFC0zFWDlPwTdex9Qj-36" value="T" style="text;html=1;align=center;verticalAlign=middle;resizable=0;points=[];autosize=1;strokeColor=none;fillColor=none;fontSize=18;" vertex="1" parent="HiAFC0zFWDlPwTdex9Qj-17">
          <mxGeometry x="356" y="230" width="30" height="30" as="geometry" />
        </mxCell>
        <mxCell id="HiAFC0zFWDlPwTdex9Qj-23" value="" style="endArrow=classic;html=1;rounded=0;entryX=0.013;entryY=0.388;entryDx=0;entryDy=0;entryPerimeter=0;" edge="1" parent="WIyWlLk6GJQsqaUBKTNV-1" target="HiAFC0zFWDlPwTdex9Qj-27">
          <mxGeometry width="50" height="50" relative="1" as="geometry">
            <mxPoint x="414" y="540" as="sourcePoint" />
            <mxPoint x="505.6500000000001" y="538.8" as="targetPoint" />
          </mxGeometry>
        </mxCell>
        <mxCell id="HiAFC0zFWDlPwTdex9Qj-24" value="" style="endArrow=classic;html=1;rounded=0;" edge="1" parent="WIyWlLk6GJQsqaUBKTNV-1">
          <mxGeometry width="50" height="50" relative="1" as="geometry">
            <mxPoint x="-220" y="509.5" as="sourcePoint" />
            <mxPoint x="-190" y="509.5" as="targetPoint" />
          </mxGeometry>
        </mxCell>
        <mxCell id="HiAFC0zFWDlPwTdex9Qj-25" value="" style="endArrow=classic;html=1;rounded=0;" edge="1" parent="WIyWlLk6GJQsqaUBKTNV-1">
          <mxGeometry width="50" height="50" relative="1" as="geometry">
            <mxPoint x="-520" y="509.5" as="sourcePoint" />
            <mxPoint x="-480" y="509.5" as="targetPoint" />
            <Array as="points">
              <mxPoint x="-510" y="509.5" />
            </Array>
          </mxGeometry>
        </mxCell>
        <mxCell id="HiAFC0zFWDlPwTdex9Qj-32" value="" style="edgeStyle=orthogonalEdgeStyle;rounded=0;orthogonalLoop=1;jettySize=auto;html=1;fontSize=18;" edge="1" parent="WIyWlLk6GJQsqaUBKTNV-1" source="HiAFC0zFWDlPwTdex9Qj-27" target="HiAFC0zFWDlPwTdex9Qj-31">
          <mxGeometry relative="1" as="geometry" />
        </mxCell>
        <mxCell id="HiAFC0zFWDlPwTdex9Qj-27" value="array값 출력" style="shape=document;whiteSpace=wrap;html=1;boundedLbl=1;fontSize=18;" vertex="1" parent="WIyWlLk6GJQsqaUBKTNV-1">
          <mxGeometry x="510" y="505" width="120" height="80" as="geometry" />
        </mxCell>
        <mxCell id="HiAFC0zFWDlPwTdex9Qj-31" value="완성" style="ellipse;whiteSpace=wrap;html=1;fontSize=18;" vertex="1" parent="WIyWlLk6GJQsqaUBKTNV-1">
          <mxGeometry x="680" y="505" width="120" height="80" as="geometry" />
        </mxCell>
      </root>
    </mxGraphModel>
  </diagram>
</mxfile>
